REM DIRINDEX 1\2,1\3,1\4
REM DIRNAME folder01,folder02,folder03,folder04
TITLE ""
FILE "DISC2Track15.mp3" MP3
  TRACK 01 AUDIO
    TITLE "4:cjc038_1404"
    INDEX 01 00:00:00
  TRACK 02 AUDIO
    TITLE "0:"
    INDEX 01 00:02:43
  TRACK 03 AUDIO
    TITLE "2:cjc038_1405"
    INDEX 01 00:03:63
  TRACK 04 AUDIO
    TITLE "0:"
    INDEX 01 00:07:62
  TRACK 05 AUDIO
    TITLE "3:cjc038_1406"
    INDEX 01 00:07:72
  TRACK 06 AUDIO
    TITLE "0:"
    INDEX 01 00:11:66
  TRACK 07 AUDIO
    TITLE "2:cjc038_1407"
    INDEX 01 00:12:40
  TRACK 08 AUDIO
    TITLE "0:"
    INDEX 01 00:14:33
  TRACK 09 AUDIO
    TITLE "3:cjc038_1408"
    INDEX 01 00:14:41
  TRACK 10 AUDIO
    TITLE "0:"
    INDEX 01 00:16:18
  TRACK 11 AUDIO
    TITLE "2:cjc038_1409"
    INDEX 01 00:17:06
  TRACK 12 AUDIO
    TITLE "0:"
    INDEX 01 00:19:65
  TRACK 13 AUDIO
    TITLE "3:cjc038_1410"
    INDEX 01 00:19:71
  TRACK 14 AUDIO
    TITLE "0:"
    INDEX 01 00:22:42
  TRACK 15 AUDIO
    TITLE "2:cjc038_1411"
    INDEX 01 00:24:20
  TRACK 16 AUDIO
    TITLE "0:"
    INDEX 01 00:26:26
  TRACK 17 AUDIO
    TITLE "3:cjc038_1412"
    INDEX 01 00:26:32
  TRACK 18 AUDIO
    TITLE "0:"
    INDEX 01 00:28:17
  TRACK 19 AUDIO
    TITLE "2:cjc038_1413"
    INDEX 01 00:29:11
  TRACK 20 AUDIO
    TITLE "0:"
    INDEX 01 00:31:08
  TRACK 21 AUDIO
    TITLE "3:cjc038_1414"
    INDEX 01 00:31:16
  TRACK 22 AUDIO
    TITLE "0:"
    INDEX 01 00:32:68
  TRACK 23 AUDIO
    TITLE "2:cjc038_1415"
    INDEX 01 00:33:62
  TRACK 24 AUDIO
    TITLE "0:"
    INDEX 01 00:36:23
  TRACK 25 AUDIO
    TITLE "3:cjc038_1416"
    INDEX 01 00:36:31
  TRACK 26 AUDIO
    TITLE "0:"
    INDEX 01 00:38:65
  TRACK 27 AUDIO
    TITLE "2:cjc038_1417"
    INDEX 01 00:39:39
  TRACK 28 AUDIO
    TITLE "0:"
    INDEX 01 00:41:42
  TRACK 29 AUDIO
    TITLE "3:cjc038_1418"
    INDEX 01 00:41:47
  TRACK 30 AUDIO
    TITLE "0:"
    INDEX 01 00:43:39
  TRACK 31 AUDIO
    TITLE "2:cjc038_1419"
    INDEX 01 00:44:20
  TRACK 32 AUDIO
    TITLE "0:"
    INDEX 01 00:48:42
  TRACK 33 AUDIO
    TITLE "3:cjc038_1420"
    INDEX 01 00:48:48
  TRACK 34 AUDIO
    TITLE "0:"
    INDEX 01 00:52:45
  TRACK 35 AUDIO
    TITLE "2:cjc038_1421"
    INDEX 01 00:53:41
  TRACK 36 AUDIO
    TITLE "0:"
    INDEX 01 00:55:63
  TRACK 37 AUDIO
    TITLE "3:cjc038_1422"
    INDEX 01 00:55:71
  TRACK 38 AUDIO
    TITLE "0:"
    INDEX 01 00:58:05
  TRACK 39 AUDIO
    TITLE "2:cjc038_1423"
    INDEX 01 00:59:69
  TRACK 40 AUDIO
    TITLE "0:"
    INDEX 01 01:03:59
  TRACK 41 AUDIO
    TITLE "3:cjc038_1424"
    INDEX 01 01:03:67
  TRACK 42 AUDIO
    TITLE "0:"
    INDEX 01 01:07:41
  TRACK 43 AUDIO
    TITLE "2:cjc038_1425"
    INDEX 01 01:08:33
  TRACK 44 AUDIO
    TITLE "0:"
    INDEX 01 01:12:15
  TRACK 45 AUDIO
    TITLE "3:cjc038_1426"
    INDEX 01 01:12:21
  TRACK 46 AUDIO
    TITLE "0:"
    INDEX 01 01:15:66
  TRACK 47 AUDIO
    TITLE "2:cjc038_1427"
    INDEX 01 01:16:48
  TRACK 48 AUDIO
    TITLE "0:"
    INDEX 01 01:19:27
  TRACK 49 AUDIO
    TITLE "3:cjc038_1428"
    INDEX 01 01:19:34
  TRACK 50 AUDIO
    TITLE "0:"
    INDEX 01 01:21:65
  TRACK 51 AUDIO
    TITLE "2:cjc038_1429"
    INDEX 01 01:22:58
  TRACK 52 AUDIO
    TITLE "0:"
    INDEX 01 01:25:72
  TRACK 53 AUDIO
    TITLE "3:cjc038_1430"
    INDEX 01 01:26:03
  TRACK 54 AUDIO
    TITLE "0:"
    INDEX 01 01:28:74
  TRACK 55 AUDIO
    TITLE "2:cjc038_1431"
    INDEX 01 01:29:64
  TRACK 56 AUDIO
    TITLE "0:"
    INDEX 01 01:33:34
  TRACK 57 AUDIO
    TITLE "3:cjc038_1432"
    INDEX 01 01:33:40
  TRACK 58 AUDIO
    TITLE "0:"
    INDEX 01 01:36:66
  TRACK 59 AUDIO
    TITLE "2:cjc038_1433"
    INDEX 01 01:37:58
  TRACK 60 AUDIO
    TITLE "0:"
    INDEX 01 01:41:44
  TRACK 61 AUDIO
    TITLE "3:cjc038_1434"
    INDEX 01 01:41:52
  TRACK 62 AUDIO
    TITLE "0:"
    INDEX 01 01:45:32
  TRACK 63 AUDIO
    TITLE "2:cjc038_1435"
    INDEX 01 01:46:08
  TRACK 64 AUDIO
    TITLE "0:"
    INDEX 01 01:54:03
  TRACK 65 AUDIO
    TITLE "3:cjc038_1436"
    INDEX 01 01:54:11
  TRACK 66 AUDIO
    TITLE "0:"
    INDEX 01 02:01:66
